<svg xmlns="http://www.w3.org/2000/svg" xmlns:xlink="http://www.w3.org/1999/xlink" version="1.1" width="256" height="256" viewBox="0 0 256 256" xml:space="preserve">
<desc>Created with Fabric.js 1.7.22</desc>
<defs>
</defs>
<g transform="translate(128 128) scale(0.72 0.72)" style="">
	<g style="stroke: none; stroke-width: 0; stroke-dasharray: none; stroke-linecap: butt; stroke-linejoin: miter; stroke-miterlimit: 10; fill: none; fill-rule: nonzero; opacity: 1;" transform="translate(-175.05 -175.05000000000004) scale(3.89 3.89)" >
	<path d="M 83.252 73.479 v -7.428 c 1.696 -0.446 2.956 -1.979 2.956 -3.813 V 49.826 c 0 -2.182 -1.774 -3.957 -3.956 -3.957 s -3.957 1.775 -3.957 3.957 v 12.412 c 0 1.834 1.261 3.367 2.957 3.813 v 7.428 h -6 V 25.282 h -13.14 V 14.52 H 27.887 v 10.762 H 14.748 v 48.198 h -6 v -7.428 c 1.696 -0.446 2.957 -1.979 2.957 -3.813 V 49.826 c 0 -2.182 -1.775 -3.957 -3.957 -3.957 s -3.957 1.775 -3.957 3.957 v 12.412 c 0 1.834 1.261 3.367 2.957 3.813 v 7.428 H 0 v 2 h 14.748 h 13.139 h 2 h 30.225 h 2 h 13.14 H 90 v -2 H 83.252 z M 23.318 66.869 h -2 V 31.282 h 2 V 66.869 z M 38.5 67.751 h -3 v -1.762 h 3 V 67.751 z M 38.5 62.751 h -3 v -1.762 h 3 V 62.751 z M 38.5 57.751 h -3 v -1.762 h 3 V 57.751 z M 38.5 52.751 h -3 v -1.762 h 3 V 52.751 z M 38.5 47.751 h -3 v -1.762 h 3 V 47.751 z M 38.5 42.75 h -3 v -1.762 h 3 V 42.75 z M 38.5 37.75 h -3 v -1.762 h 3 V 37.75 z M 38.5 32.75 h -3 v -1.762 h 3 V 32.75 z M 38.5 27.75 h -3 v -1.762 h 3 V 27.75 z M 38.5 22.75 h -3 v -1.762 h 3 V 22.75 z M 46.5 67.751 h -3 v -1.762 h 3 V 67.751 z M 46.5 62.751 h -3 v -1.762 h 3 V 62.751 z M 46.5 57.751 h -3 v -1.762 h 3 V 57.751 z M 46.5 52.751 h -3 v -1.762 h 3 V 52.751 z M 46.5 47.751 h -3 v -1.762 h 3 V 47.751 z M 46.5 42.75 h -3 v -1.762 h 3 V 42.75 z M 46.5 37.75 h -3 v -1.762 h 3 V 37.75 z M 46.5 32.75 h -3 v -1.762 h 3 V 32.75 z M 46.5 27.75 h -3 v -1.762 h 3 V 27.75 z M 46.5 22.75 h -3 v -1.762 h 3 V 22.75 z M 54.5 67.751 h -3 v -1.762 h 3 V 67.751 z M 54.5 62.751 h -3 v -1.762 h 3 V 62.751 z M 54.5 57.751 h -3 v -1.762 h 3 V 57.751 z M 54.5 52.751 h -3 v -1.762 h 3 V 52.751 z M 54.5 47.751 h -3 v -1.762 h 3 V 47.751 z M 54.5 42.75 h -3 v -1.762 h 3 V 42.75 z M 54.5 37.75 h -3 v -1.762 h 3 V 37.75 z M 54.5 32.75 h -3 v -1.762 h 3 V 32.75 z M 54.5 27.75 h -3 v -1.762 h 3 V 27.75 z M 54.5 22.75 h -3 v -1.762 h 3 V 22.75 z M 68.683 66.869 h -2 V 31.282 h 2 V 66.869 z" style="stroke: none; stroke-width: 1; stroke-dasharray: none; stroke-linecap: butt; stroke-linejoin: miter; stroke-miterlimit: 10; fill: rgb(129,129,129); fill-rule: nonzero; opacity: 1;" transform=" matrix(1 0 0 1 0 0) " stroke-linecap="round" />
</g>
</g>
</svg>